<?xml version="1.0" standalone="no"?>
<!DOCTYPE svg PUBLIC "-//W3C//DTD SVG 20010904//EN"
 "http://www.w3.org/TR/2001/REC-SVG-20010904/DTD/svg10.dtd">
<svg version="1.0" xmlns="http://www.w3.org/2000/svg"
 width="260.000000pt" height="260.000000pt" viewBox="0 0 260.000000 260.000000"
 preserveAspectRatio="xMidYMid meet">
<metadata>
Created by potrace 1.11, written by Peter Selinger 2001-2013
</metadata>
<g transform="translate(0.000000,260.000000) scale(0.100000,-0.100000)"
fill="#000000" stroke="none">
<path d="M0 1300 l0 -1300 1300 0 1300 0 0 1300 0 1300 -1300 0 -1300 0 0
-1300z m1438 881 c78 -30 133 -83 164 -159 22 -54 23 -70 23 -312 0 -236 -2
-260 -22 -325 -12 -39 -37 -87 -54 -109 -33 -39 -97 -75 -134 -76 -11 0 -26
-4 -33 -9 -14 -8 -8 -22 218 -486 104 -213 190 -395 190 -401 0 -2 -39 -4 -86
-4 -85 0 -87 1 -118 33 -20 21 -76 134 -155 308 -68 151 -151 334 -184 407
l-61 132 -60 0 -61 0 3 -416 c3 -496 10 -464 -103 -464 l-75 0 0 939 c0 624 3
942 10 946 21 13 179 23 325 21 131 -1 158 -4 213 -25z"/>
<path d="M1069 1715 c-1 -184 -2 -341 -3 -347 -1 -10 30 -13 124 -13 111 0
130 3 168 23 33 18 49 35 64 70 18 41 21 66 21 241 0 124 -5 212 -12 240 -25
91 -92 121 -266 121 l-95 0 -1 -335z"/>
</g>
</svg>
